<svg width="26" height="27" viewBox="0 0 26 27" fill="none" xmlns="http://www.w3.org/2000/svg">
<path fill-rule="evenodd" clip-rule="evenodd" d="M26 13.8052C26 20.9871 20.1819 26.8052 13 26.8052C5.81809 26.8052 0 20.9871 0 13.8052C0 6.62326 5.81809 0.805176 13 0.805176C20.1819 0.805176 26 6.62326 26 13.8052ZM12.8259 17.9257L16.0759 20.3197C16.6708 20.6534 17.0915 20.4793 17.2511 19.7684L19.384 9.71367C19.5726 8.82862 19.0648 8.48041 18.4844 8.69804L5.94867 13.5295C5.09264 13.8632 5.10715 14.342 5.80358 14.5597L9.01006 15.5608L16.4531 10.8744C16.8014 10.6422 17.1206 10.7728 16.8594 11.005L10.8382 16.4458L10.606 19.7539C10.9397 19.7539 11.0848 19.6088 11.2589 19.4347L12.8259 17.9257Z" fill="#52CAFF"/>
</svg>
