<?xml version="1.0" encoding="UTF-8"?>
<svg width="97px" height="98px" viewBox="0 0 97 98" version="1.1" xmlns="http://www.w3.org/2000/svg" xmlns:xlink="http://www.w3.org/1999/xlink">
    <title>key</title>
    <defs>
        <filter id="filter-1">
            <feColorMatrix in="SourceGraphic" type="matrix" values="0 0 0 0 0.065042 0 0 0 0 0.093212 0 0 0 0 0.093212 0 0 0 1.000000 0"></feColorMatrix>
        </filter>
    </defs>
    <g id="Page-1" stroke="none" stroke-width="1" fill="none" fill-rule="evenodd">
        <g id="Desktop-HD" transform="translate(-98.000000, -938.000000)">
            <g id="Group-7" transform="translate(29.280833, -34.553499)">
                <g id="key" transform="translate(69.000000, 972.553499)" filter="url(#filter-1)">
                    <g transform="translate(48.500000, 49.000000) rotate(-137.000000) translate(-48.500000, -49.000000) translate(25.000000, 4.000000)">
                        <path d="M46.3032252,23.7985999 C46.3032252,11.0125728 35.9853186,0.610345053 23.3032252,0.610345053 C10.6211317,0.610345053 0.303225163,11.0125728 0.303225163,23.7985999 C0.303225163,34.8306402 7.98495035,44.0871071 18.2386229,46.419193 L18.2386229,84.5042368 C18.2386229,87.3197722 20.5105764,89.6103451 23.3032252,89.6103451 C26.0958739,89.6103451 28.3678274,87.3197722 28.3678274,84.5042368 L28.3678274,82.8655379 L35.185335,82.8655379 C37.1314128,82.8655379 38.7146745,81.3513781 38.7146745,79.4904062 C38.7146745,77.6291972 37.1314128,76.1150374 35.185335,76.1150374 L35.0488672,76.1150374 C34.4001746,76.1150374 33.8724207,75.5829584 33.8724207,74.9289496 L33.8724207,73.0406977 C33.8724207,72.3866889 34.4001746,71.8546099 35.0488672,71.8546099 L35.185335,71.8546099 C37.1314128,71.8546099 38.7146745,70.3404501 38.7146745,68.479241 C38.7146745,66.618032 37.1314128,65.1038722 35.185335,65.1038722 L28.3678274,65.1038722 L28.3678274,46.4194302 C38.6215,44.0871071 46.3032252,34.8308774 46.3032252,23.7985999 Z M23.3032252,36.8505478 C16.1534891,36.8505478 10.3573724,31.0069302 10.3573724,23.7985999 C10.3573724,16.5902695 16.1534891,10.7466519 23.3032252,10.7466519 C30.4529612,10.7466519 36.2490779,16.5902695 36.2490779,23.7985999 C36.2490779,31.0069302 30.4529612,36.8505478 23.3032252,36.8505478 Z" id="Shape" fill="#000000" fill-rule="nonzero"></path>
                    </g>
                </g>
            </g>
        </g>
    </g>
</svg>