<?xml version="1.0" encoding="UTF-8"?>
<svg width="26px" height="27px" viewBox="0 0 26 27" version="1.1" xmlns="http://www.w3.org/2000/svg" xmlns:xlink="http://www.w3.org/1999/xlink">
    <title></title>
    <g id="Page-1" stroke="none" stroke-width="1" fill="none" fill-rule="evenodd">
        <g id="Desktop-HD" transform="translate(-665.000000, -1035.000000)" fill="#03DDDD" fill-rule="nonzero">
            <g id="Group-5" transform="translate(665.000000, 1036.000000)">
                <path d="M13.0000155,25.8051992 C20.1819437,25.8051992 26.000031,19.9871119 26.000031,12.8051837 C26.000031,5.62325553 20.1819437,-0.194831761 13.0000155,-0.194831761 C5.81808729,-0.194831761 0,5.62325553 0,12.8051837 C0,19.9871119 5.81808729,25.8051992 13.0000155,25.8051992 Z M16.075912,19.3197004 L12.8259081,16.9257244 L11.258942,18.4346547 C11.0848346,18.6087621 10.9397452,18.7538515 10.6060394,18.7538515 L10.8381826,15.4458119 L16.8593951,10.0049572 C17.1205561,9.77281405 16.8013593,9.64223354 16.4531446,9.87437667 L9.01005538,14.5607662 L5.80357835,13.5596489 C5.10714895,13.3420147 5.09264,12.8632195 5.94866781,12.5295138 L18.484397,7.69803479 C19.0647549,7.4804006 19.572568,7.8286153 19.3839517,8.713661 L17.2511366,18.7683605 C17.0915382,19.4792988 16.6707788,19.6534062 16.075912,19.3197004 Z" id=""></path>
            </g>
        </g>
    </g>
</svg>